<svg width="547" height="544" viewBox="0 0 547 544" fill="none" xmlns="http://www.w3.org/2000/svg">
<path d="M263.436 6.80412C267.296 -1.94103 279.704 -1.94101 283.564 6.80414L309.02 64.4879C312.049 71.3525 320.911 73.2362 326.471 68.1972L373.188 25.8544C380.271 19.435 391.607 24.4821 391.575 34.0409L391.369 97.0916C391.344 104.595 398.674 109.92 405.802 107.578L465.703 87.8978C474.784 84.9141 483.087 94.1356 479.171 102.855L453.337 160.371C450.262 167.215 454.792 175.061 462.257 175.821L524.984 182.206C534.494 183.174 538.328 194.976 531.204 201.348L484.21 243.384C478.617 248.386 479.564 257.397 486.074 261.127L540.781 292.473C549.075 297.226 547.778 309.566 538.677 312.49L478.649 331.777C471.505 334.073 468.705 342.689 473.136 348.745L510.363 399.633C516.007 407.347 509.803 418.094 500.3 417.063L437.616 410.267C430.156 409.458 424.094 416.191 425.678 423.525L438.989 485.155C441.007 494.499 430.969 501.792 422.706 496.986L368.206 465.281C361.72 461.508 353.444 465.193 351.908 472.538L339.001 534.254C337.044 543.61 324.907 546.19 319.313 538.438L282.42 487.308C278.03 481.223 268.97 481.223 264.58 487.308L227.687 538.438C222.093 546.19 209.956 543.61 207.999 534.254L195.092 472.538C193.556 465.193 185.28 461.508 178.794 465.281L124.294 496.986C116.031 501.792 105.993 494.499 108.011 485.155L121.322 423.525C122.906 416.191 116.844 409.458 109.384 410.267L46.7004 417.063C37.1972 418.094 30.9929 407.347 36.6368 399.633L73.8643 348.745C78.2945 342.689 75.4949 334.073 68.3512 331.777L8.32253 312.49C-0.778118 309.566 -2.07516 297.226 6.21868 292.473L60.9256 261.127C67.4359 257.397 68.3829 248.386 62.7904 243.384L15.7963 201.348C8.67172 194.976 12.5062 183.174 22.0159 182.206L84.7429 175.821C92.2077 175.061 96.7375 167.215 93.6632 160.371L67.8293 102.855C63.9128 94.1356 72.2158 84.9141 81.2971 87.8978L141.198 107.578C148.326 109.92 155.656 104.595 155.631 97.0916L155.425 34.0409C155.393 24.4821 166.729 19.4351 173.812 25.8544L220.529 68.1972C226.089 73.2362 234.951 71.3525 237.98 64.4879L263.436 6.80412Z" fill="#70348C"/>
</svg>
