<svg width="452" height="450" viewBox="0 0 452 450" fill="none" xmlns="http://www.w3.org/2000/svg">
<path d="M215.936 6.80411C219.796 -1.94104 232.204 -1.94101 236.064 6.80414L254.706 49.0467C257.735 55.9113 266.597 57.7949 272.156 52.756L306.368 21.7478C313.451 15.3284 324.787 20.3755 324.755 29.9343L324.604 76.1072C324.579 83.6105 331.909 88.9357 339.037 86.5936L382.904 72.1815C391.985 69.1978 400.288 78.4193 396.371 87.1389L377.453 129.258C374.378 136.103 378.908 143.949 386.373 144.709L432.309 149.385C441.819 150.353 445.653 162.154 438.529 168.527L404.114 199.31C398.522 204.312 399.469 213.323 405.979 217.053L446.042 240.008C454.335 244.761 453.038 257.101 443.938 260.025L399.978 274.149C392.834 276.445 390.035 285.061 394.465 291.117L421.727 328.383C427.371 336.097 421.167 346.844 411.663 345.813L365.759 340.836C358.3 340.028 352.237 346.76 353.822 354.095L363.57 399.227C365.588 408.57 355.549 415.864 347.286 411.057L307.375 387.84C300.889 384.067 292.613 387.752 291.077 395.096L281.625 440.292C279.668 449.648 267.531 452.228 261.938 444.476L234.92 407.033C230.53 400.948 221.47 400.948 217.08 407.033L190.062 444.476C184.469 452.228 172.332 449.648 170.375 440.292L160.923 395.096C159.387 387.752 151.111 384.067 144.625 387.84L104.714 411.057C96.4512 415.864 86.4124 408.57 88.4305 399.227L98.1784 354.095C99.7625 346.76 93.7003 340.028 86.2407 340.836L40.3366 345.813C30.8334 346.844 24.6291 336.097 30.273 328.383L57.5352 291.117C61.9654 285.061 59.1658 276.445 52.0221 274.149L8.06231 260.025C-1.03834 257.101 -2.33537 244.761 5.95847 240.008L46.021 217.053C52.5314 213.323 53.4784 204.312 47.8859 199.31L13.4715 168.527C6.3469 162.154 10.1814 150.353 19.6911 149.385L65.6269 144.709C73.0916 143.949 77.6215 136.103 74.5472 129.258L55.6287 87.1389C51.7122 78.4192 60.0152 69.1979 69.0965 72.1815L112.963 86.5937C120.091 88.9357 127.421 83.6105 127.396 76.1072L127.245 29.9343C127.213 20.3755 138.549 15.3285 145.632 21.7478L179.844 52.756C185.403 57.795 194.265 55.9113 197.294 49.0467L215.936 6.80411Z" fill="#70348C"/>
</svg>
