<svg width="398" height="396" viewBox="0 0 398 396" fill="none" xmlns="http://www.w3.org/2000/svg">
<path d="M199 0L217.982 73.0625L257.656 8.84102L254.259 84.2526L311.101 34.5785L285.627 105.639L354.584 74.9255L309.297 135.32L384.244 126.297L323.167 170.66L397.444 184.129L326.004 208.518L393.011 243.282L317.556 245.53L371.339 298.5L298.574 278.408L334.354 344.877L270.744 304.23L285.343 378.293L236.54 320.702L228.659 395.777L199 326.36L169.341 395.777L161.46 320.702L112.657 378.293L127.256 304.23L63.6456 344.877L99.4259 278.408L26.6609 298.5L80.4439 245.53L4.98935 243.282L71.9961 208.518L0.556442 184.129L74.8332 170.66L13.7561 126.297L88.703 135.32L43.4155 74.9255L112.373 105.639L86.8993 34.5785L143.741 84.2526L140.344 8.84102L180.018 73.0625L199 0Z" fill="#EB9D05"/>
</svg>
