<svg id="Слой_1" data-name="Слой 1" xmlns="http://www.w3.org/2000/svg" viewBox="0 0 1043.47 954"><defs><style>.cls-1{fill:#eb9d05;}</style></defs><title>triangle-yellow-2</title><path class="cls-1" d="M1054.41,896.06c17.27,36.11-11,77.37-50.93,74.26l-939.34-73c-39.9-3.11-61.48-48.24-38.84-81.25l532.91-777c22.64-33,72.52-29.13,89.78,7Z" transform="translate(-16.11 -16.49)"/><path class="cls-1" d="M1054.41,896.06c17.27,36.11-11,77.36-50.92,74.26l-939.33-73C24.24,894.2,2.66,849,25.29,816.05l532.92-777c22.64-33,72.52-29.17,89.79,7Z" transform="translate(-16.11 -16.49)"/><path class="cls-1" d="M1054.41,896.06c17.27,36.11-11,77.36-50.92,74.26l-939.33-73C24.24,894.2,2.66,849,25.29,816.05l532.92-777c22.64-33,72.52-29.17,89.79,7Z" transform="translate(-16.11 -16.49)"/></svg>