<svg width="416" height="416" viewBox="0 0 416 416" fill="none" xmlns="http://www.w3.org/2000/svg">
<circle cx="208" cy="208" r="208" fill="#F75544"/>
<circle cx="208" cy="208" r="181" fill="#141414"/>
<rect x="60.7971" y="118.602" width="8" height="36" transform="rotate(-58.7083 60.7971 118.602)" fill="#70348C"/>
<rect x="324.848" y="279.095" width="8" height="33" transform="rotate(-58.7083 324.848 279.095)" fill="#70348C"/>
<rect x="123.002" y="56.1436" width="8" height="36" transform="rotate(-28.8436 123.002 56.1436)" fill="#70348C"/>
<rect x="272.07" y="326.81" width="8" height="33" transform="rotate(-28.8436 272.07 326.81)" fill="#70348C"/>
<rect x="349.938" y="107.08" width="8" height="36" transform="rotate(56.8247 349.938 107.08)" fill="#70348C"/>
<rect x="91.3052" y="276.166" width="8" height="33" transform="rotate(56.8247 91.3052 276.166)" fill="#70348C"/>
<rect x="205" y="33" width="8" height="55" fill="#70348C"/>
<rect x="205" y="323" width="8" height="52" fill="#70348C"/>
<rect x="379.953" y="198.35" width="8" height="55.9652" transform="rotate(89.447 379.953 198.35)" fill="#70348C"/>
<rect x="91.3422" y="201.136" width="8" height="53.3753" transform="rotate(89.447 91.3422 201.136)" fill="#70348C"/>
<rect x="282.063" y="49.3428" width="8" height="36" transform="rotate(26.6271 282.063 49.3428)" fill="#70348C"/>
<rect x="143.575" y="325.571" width="8" height="33" transform="rotate(26.6271 143.575 325.571)" fill="#70348C"/>
</svg>
