<svg id="Слой_1" data-name="Слой 1" xmlns="http://www.w3.org/2000/svg" viewBox="0 0 519 519"><defs><style>.cls-1{fill:#eb9d05;}.cls-2{fill:#efefef;}.cls-3{fill:#f75544;}</style></defs><title>rect-white-hover</title><rect class="cls-1" x="46.57" y="47.98" width="425.72" height="425.72" rx="41.07" transform="translate(-56.89 73) rotate(-14.45)"/><path class="cls-2" d="M163.65,482.83a43.89,43.89,0,0,1-53.56-31.37l-.09-.35L37.56,164.18A43.89,43.89,0,0,1,69,111L355.32,36.2A43.88,43.88,0,0,1,408.9,67.53c0,.12.07.25.1.37l72.44,286.92A43.91,43.91,0,0,1,450,408Z"/><path d="M181.62,168.4l-3.12-12.21-3.35.86,6.41,25,3.35-.86-2.23-8.72,3-4.94,12.06,10.36L202,176.8,187.5,164.61l7.84-12.78-4.68,1.2Zm24.85,3.74.83,3.24a3,3,0,0,0,1.25.24,5.45,5.45,0,0,0,1.56-.17,7,7,0,0,0,2.41-1,5.22,5.22,0,0,0,1.57-1.7,9.74,9.74,0,0,0,1-2.56c.23-1,.48-2.2.72-3.56l3.06-20.74-3.77,1-2,18.2-12.51-14.48-3.91,1L212,169a5.62,5.62,0,0,1-.15,1,3.75,3.75,0,0,1-.45,1,3.38,3.38,0,0,1-.8.8,4.2,4.2,0,0,1-1.27.54,4.88,4.88,0,0,1-.75.12h-.82a3.47,3.47,0,0,1-.74-.11A1.84,1.84,0,0,1,206.47,172.14Zm41.62-7.09-6.4-25-20,5.12,6.41,25,3.35-.86-5.66-22.11,13.32-3.41,5.66,22.11Zm25.14-19.77a17,17,0,0,0-2.2-5.12,12.22,12.22,0,0,0-3.44-3.54,10.7,10.7,0,0,0-4.52-1.71,14.6,14.6,0,0,0-10.32,2.65,11,11,0,0,0-3.15,3.66,12.76,12.76,0,0,0-1.31,4.76,17,17,0,0,0,.53,5.55,18.27,18.27,0,0,0,1.13,3.13,15.61,15.61,0,0,0,1.8,2.81,11.7,11.7,0,0,0,2.37,2.29,10.92,10.92,0,0,0,2.89,1.56,11.61,11.61,0,0,0,3.44.68,14.59,14.59,0,0,0,7.61-1.94,11.63,11.63,0,0,0,2.69-2.25,10.63,10.63,0,0,0,1.82-2.77,14.19,14.19,0,0,0,1.13-6.46,14.76,14.76,0,0,0-.47-3.3Zm-3.35.86a14.45,14.45,0,0,1,.51,4.29,9.17,9.17,0,0,1-.78,3.65,7.79,7.79,0,0,1-2.25,2.81,11.14,11.14,0,0,1-7.81,2,8.08,8.08,0,0,1-3.29-1.39,9.91,9.91,0,0,1-2.51-2.81,15.52,15.52,0,0,1-1.58-4,14.22,14.22,0,0,1-.46-4.26,9.08,9.08,0,0,1,.91-3.69,7.59,7.59,0,0,1,2.22-2.8,10,10,0,0,1,7.53-1.93,8.09,8.09,0,0,1,3.33,1.38,9.71,9.71,0,0,1,2.53,2.81,14.08,14.08,0,0,1,1.65,3.94ZM280,141.22l-2.65-10.33-3.34.86,6.4,25,3.35-.86-3-11.78L294,140.74l3,11.78,3.35-.86-6.41-25-3.35.86,2.65,10.32Zm-130,68.1L147.33,199l-3.34.86,6.4,25,3.35-.86-3-11.79,13.33-3.41,3,11.79,3.35-.86-6.41-25-3.35.85,2.65,10.33Zm30.55-19.22-4,1L173.61,219l3.52-.9.82-8.38,9.84-2.52,4.61,7,3.73-.95Zm-2.37,16.69,1.37-12.2,6.65,10.15Zm29.66-10a15,15,0,0,1-.49-4.37,9.79,9.79,0,0,1,.89-3.64,7.79,7.79,0,0,1,2.13-2.7,8.31,8.31,0,0,1,3.3-1.63,9.58,9.58,0,0,1,2.5-.27,7.91,7.91,0,0,1,2.25.51,5.77,5.77,0,0,1,1.94,1.21,7.13,7.13,0,0,1,1.49,1.92l3.28-.84a7.83,7.83,0,0,0-.84-1.72,8.07,8.07,0,0,0-1.35-1.62,9.31,9.31,0,0,0-1.86-1.31,10.54,10.54,0,0,0-2.28-.94,12.44,12.44,0,0,0-6,.16,16.75,16.75,0,0,0-2.72,1,13.31,13.31,0,0,0-2.44,1.63,11.29,11.29,0,0,0-3.32,5.34,14.53,14.53,0,0,0-.43,3.83,20.4,20.4,0,0,0,.67,4.66,16.57,16.57,0,0,0,1.72,4.39,12.67,12.67,0,0,0,2.3,3,9.4,9.4,0,0,0,2.7,1.83,11,11,0,0,0,2.86.87,10.37,10.37,0,0,0,2.78.14,13.25,13.25,0,0,0,2.5-.38,10.71,10.71,0,0,0,2.93-1.2,9.82,9.82,0,0,0,2.27-1.73,9.63,9.63,0,0,0,1.56-2.18,12,12,0,0,0,1-2.37,12.84,12.84,0,0,0,.45-2.46,10.27,10.27,0,0,0-.12-2.35l-3.24.83a8.31,8.31,0,0,1-1.06,5.14,7.32,7.32,0,0,1-1.78,2.06,6.86,6.86,0,0,1-2.74,1.33,7.85,7.85,0,0,1-3.54.12,7.71,7.71,0,0,1-3.14-1.38,9.49,9.49,0,0,1-2.5-2.78,15.46,15.46,0,0,1-1.7-4.07Zm26.32-7L231,177.59l-3.35.85,6.41,25,3.35-.86-2.23-8.72,3-4.94,12.06,10.37,4.29-1.1L240,186.05l7.84-12.79-4.67,1.2Zm25.32,2.1-5.19-20.26-3.35.86,6.41,25,3.87-1,7.52-23.62h.07L274,193.26l3.35-.86-6.41-25-3.87,1-7.54,23.51Zm22.6-3.82-2.27.58,2.13,8.3,3.14-.8-1.38-5.37,17.44-4.46,1.37,5.37,3.14-.81-2.12-8.3-2.83.73L295,161.2l-15.72,4c.15.59.33,1.32.53,2.24s.46,1.92.68,3.09.45,2.34.71,3.65.43,2.67.63,4,.32,2.4.42,3.38.12,1.79.13,2.53a12.32,12.32,0,0,1-.1,2.07c-.1.61-.13,1.29-.23,1.91Zm1.12-20.72,9.17-2.35,4.92,19.18-11.72,3,.15-2v-2c0-.7-.11-1.57-.2-2.51s-.27-2-.46-3.38c-.24-1.68-.48-3.33-.79-5s-.68-3.29-1.1-4.94Zm23.8,3.79-3.12-12.21-3.35.86,6.41,25,3.34-.86-2.23-8.72,3.05-4.94,12,10.36,4.29-1.09-14.53-12.19,7.84-12.78-4.67,1.2Zm24.85,3.74.83,3.24a3,3,0,0,0,1.25.24,5.42,5.42,0,0,0,1.55-.17,7,7,0,0,0,2.41-1,5.14,5.14,0,0,0,1.58-1.7,9.74,9.74,0,0,0,1-2.56c.23-1,.47-2.2.72-3.56l3.05-20.74-3.76,1-2,18.2L326,153.35l-3.9,1,15.38,17.43a5.6,5.6,0,0,1-.14,1,4.12,4.12,0,0,1-.46,1,3.38,3.38,0,0,1-.8.8,4.2,4.2,0,0,1-1.27.54,4.88,4.88,0,0,1-.75.12h-.82a3.29,3.29,0,0,1-.73-.11A2,2,0,0,1,331.85,174.88ZM221.17,220.73l.6,2.34,5.72-1.47,4.42,17.26,3.28-.83L229,213.76l-2.4.61c0,2-.33,3.36-1,4.06A13.29,13.29,0,0,1,221.17,220.73Zm32.09-9.14a7.44,7.44,0,0,0-7.83-2.16c-3.52.9-5.46,3.37-5.87,7.41a22.19,22.19,0,0,0,.75,7.43,17.75,17.75,0,0,0,4,8.08,7.27,7.27,0,0,0,7.49,2.13,7.43,7.43,0,0,0,5.81-6.47,20,20,0,0,0-.6-8.61A17.91,17.91,0,0,0,253.26,211.59Zm1.05,17a4.39,4.39,0,0,1-3.22,3.09c-2,.51-3.68-.29-5.11-2.37a19.61,19.61,0,0,1-2.33-5.8,17.85,17.85,0,0,1-.63-7.82,4.22,4.22,0,0,1,3.29-3.56A4,4,0,0,1,251,213.8a20.2,20.2,0,0,1,2.76,6.58c1,3.84,1.16,6.62.58,8.22Zm17,.88,7.25-28.42-1.88.48L269.44,230Zm-4.07-23a6.12,6.12,0,0,0-8.39,2.14v0a6.09,6.09,0,0,0,2.1,8.34l.06,0a6.1,6.1,0,0,0,8.37-2.1l0-.05a6.07,6.07,0,0,0-2.07-8.33l-.07,0Zm0,7.1a3.52,3.52,0,0,1-2.24,1.69,3.62,3.62,0,0,1-4.39-2.61v0a3.56,3.56,0,0,1,2.52-4.36l.07,0a3.5,3.5,0,0,1,2.77.37,3.65,3.65,0,0,1,1.28,5h0ZM287,214a6.07,6.07,0,1,0,2.82,3.74A6,6,0,0,0,287,214Zm0,7.1a3.61,3.61,0,0,1-4.95,1.31l-.05,0a3.67,3.67,0,0,1-1.27-5,3.61,3.61,0,0,1,4.95-1.31l.05,0a3.65,3.65,0,0,1,1.28,5Z"/><path class="cls-3" d="M391.86,377.5l-186,47.8a47,47,0,0,1-57.22-33.82h0a47,47,0,0,1,33.82-57.22l186-47.8a47,47,0,0,1,57.22,33.82h0A47,47,0,0,1,391.86,377.5Z"/><path d="M274.16,350l-.6-2.35-15.06,3.87.7,2.73,12-3.08a39.2,39.2,0,0,0-2.74,7.35A38,38,0,0,0,267,372l3-.78c-.08-2.36-.12-4.06-.1-5.13a41.88,41.88,0,0,1,.66-5.65,36,36,0,0,1,1.7-6.22A26.26,26.26,0,0,1,274.16,350Zm17.22-4.43-.6-2.35-15.06,3.87.7,2.73,12-3.08a39.2,39.2,0,0,0-2.74,7.35,38,38,0,0,0-1.38,13.51l3-.78c-.08-2.36-.12-4.06-.1-5.13a41.88,41.88,0,0,1,.66-5.65,36,36,0,0,1,1.7-6.22A26.26,26.26,0,0,1,291.38,345.58Zm17.22-4.43-.6-2.35-15.06,3.87.7,2.73,12-3.08a39.2,39.2,0,0,0-2.74,7.35,38,38,0,0,0-1.38,13.51l3-.78c-.08-2.36-.12-4.06-.1-5.13a41.88,41.88,0,0,1,.66-5.65,36,36,0,0,1,1.7-6.22A26.26,26.26,0,0,1,308.6,341.15Z"/></svg>