<svg id="Слой_1" data-name="Слой 1" xmlns="http://www.w3.org/2000/svg" viewBox="0 0 396.89 395.78"><defs><style>.cls-1{fill:#70348c;}</style></defs><title>star-yellow-hover</title><path class="cls-1" d="M199,0l19,73.06L257.66,8.84l-3.4,75.41L311.1,34.58l-25.47,71.06,68.95-30.71L309.3,135.32l74.94-9-61.07,44.36,74.27,13.47L326,208.52l67,34.76-75.45,2.25,53.78,53-72.77-20.09,35.78,66.47-63.61-40.65,14.6,74.06-48.8-57.59-7.88,75.08L199,326.36l-29.66,69.42-7.88-75.08-48.8,57.59,14.6-74.06L63.65,344.88l35.78-66.47L26.66,298.5l53.78-53L5,243.28l67-34.76L.56,184.13l74.27-13.47L13.76,126.3l74.94,9L43.42,74.93l69,30.71L86.9,34.58l56.84,49.67-3.4-75.41L180,73.06Z" transform="translate(-0.56)"/></svg>