<svg id="Слой_1" data-name="Слой 1" xmlns="http://www.w3.org/2000/svg" viewBox="0 0 452 450"><defs><style>.cls-1{fill:#70348c;}.cls-2{fill:#141414;}.cls-3,.cls-4{fill:none;stroke:#70348c;}.cls-3{stroke-width:28px;}.cls-4{stroke-width:26px;}</style></defs><title>star-purple-hover</title><path class="cls-1" d="M215.94,6.8a11,11,0,0,1,20.12,0l18.65,42.25a11,11,0,0,0,17.45,3.71l34.21-31a11,11,0,0,1,18.39,8.18l-.16,46.18A11,11,0,0,0,339,86.59L382.9,72.18a11,11,0,0,1,13.47,15l-18.92,42.12a11,11,0,0,0,8.92,15.45l45.94,4.67a11,11,0,0,1,6.22,19.15l-34.42,30.78A11,11,0,0,0,406,217.05L446,240a11,11,0,0,1-2.1,20l-44,14.13a11,11,0,0,0-5.52,17l27.27,37.26a11,11,0,0,1-10.07,17.43l-45.9-5a11,11,0,0,0-11.94,13.26l9.75,45.13a11,11,0,0,1-16.28,11.83l-39.91-23.22a11,11,0,0,0-16.3,7.26l-9.45,45.19a11,11,0,0,1-19.69,4.19l-27-37.45a11,11,0,0,0-17.84,0l-27,37.45a11,11,0,0,1-19.68-4.19l-9.46-45.19a11,11,0,0,0-16.29-7.26l-39.92,23.22a11,11,0,0,1-16.28-11.83l9.75-45.13a11,11,0,0,0-11.94-13.26l-45.9,5a11,11,0,0,1-10.07-17.43l27.27-37.26a11,11,0,0,0-5.52-17L8.06,260A11,11,0,0,1,6,240l40.06-23a11,11,0,0,0,1.87-17.74L13.47,168.53a11,11,0,0,1,6.22-19.15l45.94-4.67a11,11,0,0,0,8.92-15.45L55.63,87.14a11,11,0,0,1,13.47-15L113,86.59A11,11,0,0,0,127.4,76.11l-.15-46.18a11,11,0,0,1,18.38-8.18l34.21,31a11,11,0,0,0,17.45-3.71Z"/><path class="cls-1" d="M218.18,6.11a9.09,9.09,0,0,1,16.64,0l21,47.68a9.09,9.09,0,0,0,14.42,3.06l38.62-35a9.1,9.1,0,0,1,15.2,6.77l-.17,52.12a9.09,9.09,0,0,0,11.93,8.66l49.51-16.26A9.09,9.09,0,0,1,396.5,85.5L375.15,133a9.09,9.09,0,0,0,7.37,12.77l51.85,5.28a9.09,9.09,0,0,1,5.14,15.82l-38.84,34.75a9.08,9.08,0,0,0,1.54,14.66l45.22,25.91a9.1,9.1,0,0,1-1.74,16.55l-49.62,15.94a9.1,9.1,0,0,0-4.56,14l30.77,42.06A9.09,9.09,0,0,1,414,345.22l-51.82-5.62a9.09,9.09,0,0,0-9.86,11l11,50.94a9.09,9.09,0,0,1-13.46,9.78l-45.05-26.21a9.09,9.09,0,0,0-13.47,6l-10.67,51a9.09,9.09,0,0,1-16.27,3.46l-30.5-42.26a9.09,9.09,0,0,0-14.74,0l-30.5,42.26a9.09,9.09,0,0,1-16.27-3.46l-10.67-51a9.09,9.09,0,0,0-13.47-6l-45,26.21a9.09,9.09,0,0,1-13.46-9.78l11-50.94a9.09,9.09,0,0,0-9.86-11L39,345.22a9.09,9.09,0,0,1-8.31-14.41l30.77-42.06a9.1,9.1,0,0,0-4.56-14L7.31,258.78a9.1,9.1,0,0,1-1.74-16.55l45.22-25.91a9.08,9.08,0,0,0,1.54-14.66L13.49,166.91a9.09,9.09,0,0,1,5.14-15.82l51.85-5.28A9.09,9.09,0,0,0,77.85,133L56.5,85.5A9.09,9.09,0,0,1,67.63,73.14L117.14,89.4a9.08,9.08,0,0,0,11.93-8.66l-.17-52.12a9.1,9.1,0,0,1,15.2-6.77l38.62,35a9.09,9.09,0,0,0,14.42-3.06Z"/><circle class="cls-2" cx="226.09" cy="227.79" r="135.56"/><circle class="cls-3" cx="226.09" cy="227.79" r="85.14"/><path class="cls-4" d="M102.93,148.44l50,31.41"/><path class="cls-4" d="M291.39,273.25l50,31.41"/><path class="cls-4" d="M226,307.14l1,59.05"/><path class="cls-4" d="M302.13,186.58l51.49-28.92"/><path class="cls-4" d="M103.75,304.78l51.49-28.92"/><path class="cls-4" d="M225.13,84l1,59"/></svg>