<svg id="Слой_1" data-name="Слой 1" xmlns="http://www.w3.org/2000/svg" viewBox="0 0 451.15 448.8"><defs><style>.cls-1{fill:#70348c;}.cls-2{fill:#141414;}</style></defs><title>star-purple-maon-hover</title><path class="cls-1" d="M215.94,6.8a11,11,0,0,1,20.12,0l18.65,42.25a11,11,0,0,0,17.45,3.71l34.21-31a11,11,0,0,1,18.39,8.18l-.16,46.18A11,11,0,0,0,339,86.59L382.9,72.18a11,11,0,0,1,13.47,15l-18.92,42.12a11,11,0,0,0,8.92,15.45l45.94,4.67a11,11,0,0,1,6.22,19.15l-34.42,30.78A11,11,0,0,0,406,217.05L446,240a11,11,0,0,1-2.1,20l-44,14.13a11,11,0,0,0-5.52,17l27.27,37.26a11,11,0,0,1-10.07,17.43l-45.9-5a11,11,0,0,0-11.94,13.26l9.75,45.13a11,11,0,0,1-16.28,11.83l-39.91-23.22a11,11,0,0,0-16.3,7.26l-9.45,45.19a11,11,0,0,1-19.69,4.19l-27-37.45a11,11,0,0,0-17.84,0l-27,37.45a11,11,0,0,1-19.68-4.19l-9.46-45.19a11,11,0,0,0-16.29-7.26l-39.92,23.22a11,11,0,0,1-16.28-11.83l9.75-45.13a11,11,0,0,0-11.94-13.26l-45.9,5a11,11,0,0,1-10.07-17.43l27.27-37.26a11,11,0,0,0-5.52-17L8.06,260A11,11,0,0,1,6,240l40.06-23a11,11,0,0,0,1.87-17.74L13.47,168.53a11,11,0,0,1,6.22-19.15l45.94-4.67a11,11,0,0,0,8.92-15.45L55.63,87.14a11,11,0,0,1,13.47-15L113,86.59A11,11,0,0,0,127.4,76.11l-.15-46.18a11,11,0,0,1,18.38-8.18l34.21,31a11,11,0,0,0,17.45-3.71Z" transform="translate(-0.43 -0.25)"/><path class="cls-2" d="M218.36,48.76a8.89,8.89,0,0,1,16.28,0l15.08,34.17a8.9,8.9,0,0,0,14.12,3l27.68-25.09a8.9,8.9,0,0,1,14.88,6.62l-.12,37.36A8.89,8.89,0,0,0,318,113.31l35.49-11.66a8.9,8.9,0,0,1,10.9,12.1L349,147.83a8.9,8.9,0,0,0,7.22,12.5l37.16,3.78a8.9,8.9,0,0,1,5,15.49L370.6,204.5a8.91,8.91,0,0,0,1.51,14.36l32.41,18.57a8.9,8.9,0,0,1-1.7,16.2l-35.56,11.42a8.9,8.9,0,0,0-4.46,13.73l22.05,30.15a8.9,8.9,0,0,1-8.14,14.1l-37.14-4a8.9,8.9,0,0,0-9.66,10.72l7.89,36.52a8.9,8.9,0,0,1-13.17,9.57L292.34,357a8.9,8.9,0,0,0-13.19,5.87l-7.65,36.57a8.89,8.89,0,0,1-15.92,3.38l-21.86-30.29a8.91,8.91,0,0,0-14.44,0l-21.86,30.29a8.89,8.89,0,0,1-15.92-3.38l-7.65-36.57A8.9,8.9,0,0,0,160.66,357l-32.29,18.79a8.9,8.9,0,0,1-13.17-9.57l7.89-36.52A8.9,8.9,0,0,0,113.43,319l-37.14,4a8.9,8.9,0,0,1-8.14-14.1l22-30.15a8.9,8.9,0,0,0-4.46-13.73L50.18,253.63a8.9,8.9,0,0,1-1.7-16.2l32.41-18.57A8.91,8.91,0,0,0,82.4,204.5L54.56,179.6a8.9,8.9,0,0,1,5-15.49l37.16-3.78a8.9,8.9,0,0,0,7.22-12.5L88.66,113.75a8.9,8.9,0,0,1,10.9-12.1l35.49,11.66a8.9,8.9,0,0,0,11.68-8.48l-.13-37.36a8.9,8.9,0,0,1,14.88-6.62l27.68,25.09a8.9,8.9,0,0,0,14.12-3Z" transform="translate(-0.43 -0.25)"/></svg>