<svg id="Слой_1" data-name="Слой 1" xmlns="http://www.w3.org/2000/svg" viewBox="0 0 822.86 752.3"><defs><style>.cls-1{fill:#eb9d05;}.cls-2{fill:none;stroke:#000;stroke-miterlimit:10;stroke-width:25px;}</style></defs><title>triangle-yellow-2-hover</title><path class="cls-1" d="M834.89,710.1c13.62,28.47-8.7,61-40.16,58.56L54,711.07C22.52,708.63,5.5,673,23.35,647L443.6,34.3c17.85-26,57.18-23,70.8,5.51Z" transform="translate(-16.11 -16.49)"/><path class="cls-1" d="M834.89,710.1c13.62,28.47-8.7,61-40.16,58.56L54,711.07C22.52,708.63,5.5,673,23.35,647L443.6,34.3c17.85-26,57.18-23,70.8,5.51Z" transform="translate(-16.11 -16.49)"/><line class="cls-2" x1="427.51" y1="481.38" x2="378.76" y2="365.13"/><line class="cls-2" x1="590.01" y1="365.13" x2="391.57" y2="460.9"/></svg>